<svg width="48" height="48" viewBox="0 0 48 48" fill="none" xmlns="http://www.w3.org/2000/svg">
<path d="M25.5 28.314V25.5H22.5V28.314C22.4999 28.5598 22.4697 28.8046 22.41 29.043L21.21 33.837L24 35.697L26.79 33.837L25.59 29.043C25.5302 28.8046 25.5 28.5598 25.5 28.314Z" fill="#C96A3B"/>
<path d="M12 0H36C37.5913 0 39.1174 0.632141 40.2426 1.75736C41.3679 2.88258 42 4.4087 42 6V42C42 43.5913 41.3679 45.1174 40.2426 46.2426C39.1174 47.3679 37.5913 48 36 48H12C10.4087 48 8.88258 47.3679 7.75736 46.2426C6.63214 45.1174 6 43.5913 6 42V6C6 4.4087 6.63214 2.88258 7.75736 1.75736C8.88258 0.632141 10.4087 0 12 0ZM19.5 25.5V28.314L18.3 33.111C18.1505 33.7112 18.1902 34.3429 18.4136 34.9197C18.637 35.4965 19.0332 35.9901 19.548 36.333L22.338 38.193C22.8307 38.5213 23.4095 38.6964 24.0015 38.6964C24.5935 38.6964 25.1723 38.5213 25.665 38.193L28.455 36.333C28.9693 35.9897 29.3649 35.4959 29.5877 34.9192C29.8106 34.3424 29.8498 33.7109 29.7 33.111L28.5 28.314V25.5C28.5 24.7044 28.1839 23.9413 27.6213 23.3787C27.0587 22.8161 26.2956 22.5 25.5 22.5H22.5C21.7044 22.5 20.9413 22.8161 20.3787 23.3787C19.8161 23.9413 19.5 24.7044 19.5 25.5ZM22.5 9H19.5V12H22.5V15H19.5V18H22.5V21H27V18H24V15H27V12H24V9H27V6H24V3H19.5V6H22.5V9Z" fill="#C96A3B"/>
</svg>
