<svg width="48" height="48" viewBox="0 0 48 48" fill="none" xmlns="http://www.w3.org/2000/svg">
<path d="M27.879 0H12C10.4087 0 8.88258 0.632141 7.75736 1.75736C6.63214 2.88258 6 4.4087 6 6V42C6 43.5913 6.63214 45.1174 7.75736 46.2426C8.88258 47.3679 10.4087 48 12 48H36C37.5913 48 39.1174 47.3679 40.2426 46.2426C41.3679 45.1174 42 43.5913 42 42V14.121C41.9998 13.3254 41.6836 12.5625 41.121 12L30 0.879C29.4375 0.316352 28.6746 0.000169912 27.879 0V0ZM28.5 10.5V4.5L37.5 13.5H31.5C30.7044 13.5 29.9413 13.1839 29.3787 12.6213C28.8161 12.0587 28.5 11.2956 28.5 10.5ZM33 19.92V25.17L27 26.67V37.5C27 38.985 26.097 40.149 25.014 40.869C23.922 41.598 22.497 42 21 42C19.5 42 18.078 41.598 16.986 40.869C15.906 40.149 15 38.985 15 37.5C15 36.015 15.903 34.851 16.986 34.131C18.078 33.402 19.503 33 21 33C22.068 33 23.1 33.204 24 33.588V20.67C24 20.0012 24.2235 19.3516 24.635 18.8244C25.0464 18.2971 25.6223 17.9225 26.271 17.76L29.271 17.01C29.7133 16.8992 30.1751 16.8907 30.6213 16.9851C31.0674 17.0796 31.4861 17.2744 31.8456 17.555C32.2051 17.8355 32.496 18.1944 32.696 18.6042C32.896 19.014 33 19.464 33 19.92V19.92Z" fill="#63A743"/>
</svg>
