<svg width="48" height="48" viewBox="0 0 48 48" fill="none" xmlns="http://www.w3.org/2000/svg">
<path d="M27.879 0H12C10.4087 0 8.88258 0.632141 7.75736 1.75736C6.63214 2.88258 6 4.4087 6 6V42C6 43.5913 6.63214 45.1174 7.75736 46.2426C8.88258 47.3679 10.4087 48 12 48H36C37.5913 48 39.1174 47.3679 40.2426 46.2426C41.3679 45.1174 42 43.5913 42 42V14.121C41.9998 13.3254 41.6836 12.5625 41.121 12L30 0.879C29.4375 0.316352 28.6746 0.000169912 27.879 0V0ZM28.5 10.5V4.5L37.5 13.5H31.5C30.7044 13.5 29.9413 13.1839 29.3787 12.6213C28.8161 12.0587 28.5 11.2956 28.5 10.5ZM32.562 23.562L23.562 32.562C23.4227 32.7017 23.2571 32.8125 23.0749 32.8881C22.8927 32.9638 22.6973 33.0027 22.5 33.0027C22.3027 33.0027 22.1073 32.9638 21.9251 32.8881C21.7429 32.8125 21.5773 32.7017 21.438 32.562L16.938 28.062C16.7985 27.9225 16.6879 27.757 16.6124 27.5748C16.537 27.3925 16.4981 27.1972 16.4981 27C16.4981 26.8028 16.537 26.6075 16.6124 26.4252C16.6879 26.243 16.7985 26.0775 16.938 25.938C17.2197 25.6563 17.6017 25.4981 18 25.4981C18.1972 25.4981 18.3925 25.537 18.5748 25.6124C18.757 25.6879 18.9225 25.7985 19.062 25.938L22.5 29.379L30.438 21.438C30.7197 21.1563 31.1017 20.9981 31.5 20.9981C31.8983 20.9981 32.2803 21.1563 32.562 21.438C32.8437 21.7197 33.0019 22.1017 33.0019 22.5C33.0019 22.8983 32.8437 23.2803 32.562 23.562V23.562Z" fill="#343434"/>
</svg>
