<svg width="48" height="48" viewBox="0 0 48 48" fill="none" xmlns="http://www.w3.org/2000/svg">
<path d="M27.879 0H12C10.4087 0 8.88258 0.632141 7.75736 1.75736C6.63214 2.88258 6 4.4087 6 6V42C6 43.5913 6.63214 45.1174 7.75736 46.2426C8.88258 47.3679 10.4087 48 12 48H36C37.5913 48 39.1174 47.3679 40.2426 46.2426C41.3679 45.1174 42 43.5913 42 42V14.121C41.9998 13.3254 41.6836 12.5625 41.121 12L30 0.879C29.4375 0.316352 28.6746 0.000169912 27.879 0V0ZM28.5 10.5V4.5L37.5 13.5H31.5C30.7044 13.5 29.9413 13.1839 29.3787 12.6213C28.8161 12.0587 28.5 11.2956 28.5 10.5ZM19.5 16.5V18.402L21.147 17.451C21.3177 17.351 21.5064 17.2857 21.7024 17.2589C21.8984 17.2321 22.0978 17.2443 22.289 17.2949C22.4803 17.3454 22.6596 17.4333 22.8168 17.5535C22.9739 17.6736 23.1057 17.8237 23.2046 17.995C23.3036 18.1663 23.3676 18.3555 23.3931 18.5517C23.4186 18.7479 23.405 18.9471 23.3532 19.138C23.3014 19.3289 23.2123 19.5077 23.0911 19.6641C22.9699 19.8204 22.819 19.9512 22.647 20.049L21 21L22.647 21.951C22.819 22.0488 22.9699 22.1796 23.0911 22.3359C23.2123 22.4923 23.3014 22.6711 23.3532 22.862C23.405 23.0529 23.4186 23.2521 23.3931 23.4483C23.3676 23.6445 23.3036 23.8337 23.2046 24.005C23.1057 24.1763 22.9739 24.3264 22.8168 24.4465C22.6596 24.5667 22.4803 24.6546 22.289 24.7051C22.0978 24.7557 21.8984 24.7679 21.7024 24.7411C21.5064 24.7143 21.3177 24.649 21.147 24.549L19.5 23.598V25.5C19.5 25.8978 19.342 26.2794 19.0607 26.5607C18.7794 26.842 18.3978 27 18 27C17.6022 27 17.2206 26.842 16.9393 26.5607C16.658 26.2794 16.5 25.8978 16.5 25.5V23.598L14.853 24.549C14.6823 24.649 14.4936 24.7143 14.2976 24.7411C14.1016 24.7679 13.9022 24.7557 13.711 24.7051C13.5197 24.6546 13.3404 24.5667 13.1832 24.4465C13.0261 24.3264 12.8943 24.1763 12.7954 24.005C12.6964 23.8337 12.6324 23.6445 12.6069 23.4483C12.5814 23.2521 12.595 23.0529 12.6468 22.862C12.6986 22.6711 12.7877 22.4923 12.9089 22.3359C13.0301 22.1796 13.181 22.0488 13.353 21.951L15 21L13.353 20.049C13.0113 19.8487 12.7627 19.5213 12.6614 19.1384C12.5602 18.7554 12.6145 18.348 12.8126 18.005C13.0106 17.6619 13.3363 17.4112 13.7186 17.3074C14.1009 17.2036 14.5087 17.2552 14.853 17.451L16.5 18.402V16.5C16.5 16.1022 16.658 15.7206 16.9393 15.4393C17.2206 15.158 17.6022 15 18 15C18.3978 15 18.7794 15.158 19.0607 15.4393C19.342 15.7206 19.5 16.1022 19.5 16.5V16.5ZM13.5 30H28.5C28.8978 30 29.2794 30.158 29.5607 30.4393C29.842 30.7206 30 31.1022 30 31.5C30 31.8978 29.842 32.2794 29.5607 32.5607C29.2794 32.842 28.8978 33 28.5 33H13.5C13.1022 33 12.7206 32.842 12.4393 32.5607C12.158 32.2794 12 31.8978 12 31.5C12 31.1022 12.158 30.7206 12.4393 30.4393C12.7206 30.158 13.1022 30 13.5 30V30ZM13.5 36H28.5C28.8978 36 29.2794 36.158 29.5607 36.4393C29.842 36.7206 30 37.1022 30 37.5C30 37.8978 29.842 38.2794 29.5607 38.5607C29.2794 38.842 28.8978 39 28.5 39H13.5C13.1022 39 12.7206 38.842 12.4393 38.5607C12.158 38.2794 12 37.8978 12 37.5C12 37.1022 12.158 36.7206 12.4393 36.4393C12.7206 36.158 13.1022 36 13.5 36V36Z" fill="#3F94BE"/>
</svg>
