<svg width="48" height="48" viewBox="0 0 48 48" fill="none" xmlns="http://www.w3.org/2000/svg">
<path d="M15 22.5C15 22.1022 15.158 21.7206 15.4393 21.4393C15.7206 21.158 16.1022 21 16.5 21H31.5C31.8978 21 32.2794 21.158 32.5607 21.4393C32.842 21.7206 33 22.1022 33 22.5V28.5C33 28.8978 32.842 29.2794 32.5607 29.5607C32.2794 29.842 31.8978 30 31.5 30H16.5C16.1022 30 15.7206 29.842 15.4393 29.5607C15.158 29.2794 15 28.8978 15 28.5V22.5Z" fill="#F24E1E"/>
<path d="M27.879 0H12C10.4087 0 8.88258 0.632141 7.75736 1.75736C6.63214 2.88258 6 4.4087 6 6V42C6 43.5913 6.63214 45.1174 7.75736 46.2426C8.88258 47.3679 10.4087 48 12 48H36C37.5913 48 39.1174 47.3679 40.2426 46.2426C41.3679 45.1174 42 43.5913 42 42V14.121C41.9998 13.3254 41.6836 12.5625 41.121 12L30 0.879C29.4375 0.316352 28.6746 0.000169912 27.879 0V0ZM28.5 10.5V4.5L37.5 13.5H31.5C30.7044 13.5 29.9413 13.1839 29.3787 12.6213C28.8161 12.0587 28.5 11.2956 28.5 10.5ZM25.5 18H31.5C32.6935 18 33.8381 18.4741 34.682 19.318C35.5259 20.1619 36 21.3065 36 22.5V28.5C36 29.6935 35.5259 30.8381 34.682 31.682C33.8381 32.5259 32.6935 33 31.5 33H30.081L31.422 37.026C31.5306 37.3985 31.4907 37.7985 31.3107 38.1422C31.1306 38.4858 30.8244 38.7463 30.4563 38.869C30.0883 38.9917 29.687 38.967 29.3368 38.8001C28.9865 38.6332 28.7146 38.3371 28.578 37.974L26.919 33H25.5V36C25.5 36.3978 25.342 36.7794 25.0607 37.0607C24.7794 37.342 24.3978 37.5 24 37.5C23.6022 37.5 23.2206 37.342 22.9393 37.0607C22.658 36.7794 22.5 36.3978 22.5 36V33H21.081L19.422 37.974C19.3655 38.1677 19.2705 38.348 19.1427 38.5042C19.0149 38.6603 18.8569 38.789 18.6782 38.8827C18.4994 38.9763 18.3036 39.0329 18.1025 39.0491C17.9014 39.0654 17.6991 39.0408 17.5077 38.977C17.3162 38.9132 17.1397 38.8114 16.9885 38.6778C16.8373 38.5442 16.7147 38.3814 16.6279 38.1992C16.5411 38.0171 16.4919 37.8193 16.4834 37.6177C16.4748 37.4161 16.507 37.2149 16.578 37.026L17.919 33H16.5C15.3065 33 14.1619 32.5259 13.318 31.682C12.4741 30.8381 12 29.6935 12 28.5V22.5C12 21.3065 12.4741 20.1619 13.318 19.318C14.1619 18.4741 15.3065 18 16.5 18H22.5C22.5 17.6022 22.658 17.2206 22.9393 16.9393C23.2206 16.658 23.6022 16.5 24 16.5C24.3978 16.5 24.7794 16.658 25.0607 16.9393C25.342 17.2206 25.5 17.6022 25.5 18V18Z" fill="#F24E1E"/>
</svg>
