<svg width="48" height="48" viewBox="0 0 48 48" fill="none" xmlns="http://www.w3.org/2000/svg">
<path d="M12 0H27.879C28.6746 0.000169912 29.4375 0.316352 30 0.879L41.121 12C41.6836 12.5625 41.9998 13.3254 42 14.121V30.879L33.81 22.689C33.5017 22.3815 33.1302 22.1449 32.7212 21.9954C32.3123 21.846 31.8757 21.7874 31.4418 21.8236C31.0079 21.8599 30.5871 21.9901 30.2086 22.2054C29.8301 22.4206 29.503 22.7156 29.25 23.07L23.583 31.002L18.276 27.816C17.7023 27.4713 17.0298 27.3284 16.3655 27.4099C15.7013 27.4915 15.0833 27.7928 14.61 28.266L6 36.876V6C6 4.4087 6.63214 2.88258 7.75736 1.75736C8.88258 0.632141 10.4087 0 12 0V0ZM28.5 4.5V10.5C28.5 11.2956 28.8161 12.0587 29.3787 12.6213C29.9413 13.1839 30.7044 13.5 31.5 13.5H37.5L28.5 4.5ZM24.006 16.5C24.006 15.3065 23.5319 14.1619 22.688 13.318C21.8441 12.4741 20.6995 12 19.506 12C18.3125 12 17.1679 12.4741 16.324 13.318C15.4801 14.1619 15.006 15.3065 15.006 16.5C15.006 17.6935 15.4801 18.8381 16.324 19.682C17.1679 20.5259 18.3125 21 19.506 21C20.6995 21 21.8441 20.5259 22.688 19.682C23.5319 18.8381 24.006 17.6935 24.006 16.5Z" fill="#3898A3"/>
<path d="M31.692 24.8086L42 35.1226V41.9986C42 43.5899 41.3679 45.116 40.2426 46.2412C39.1174 47.3665 37.5913 47.9986 36 47.9986H12C10.4087 47.9986 8.88258 47.3665 7.75736 46.2412C6.63214 45.116 6 43.5899 6 41.9986V41.1196L16.734 30.3886L24.414 34.9966L31.692 24.8116V24.8086Z" fill="#3898A3"/>
</svg>
