<svg width="48" height="48" viewBox="0 0 48 48" fill="none" xmlns="http://www.w3.org/2000/svg">
<path d="M16.5686 37.2738C16.9886 37.0278 17.4476 36.7878 17.9456 36.5598C17.5249 37.187 17.0744 37.7937 16.5956 38.3778C15.7556 39.3888 15.1016 39.9258 14.6906 40.0938C14.6565 40.1082 14.6214 40.1202 14.5856 40.1298C14.5557 40.0882 14.5296 40.0441 14.5076 39.9978C14.3396 39.6678 14.3456 39.3498 14.6276 38.9178C14.9456 38.4228 15.5846 37.8558 16.5686 37.2738ZM23.9336 32.3328C23.5766 32.4078 23.2226 32.4828 22.8656 32.5668C23.3944 31.5307 23.8946 30.4803 24.3656 29.4168C24.8398 30.2956 25.3503 31.1543 25.8956 31.9908C25.2446 32.0868 24.5876 32.2008 23.9336 32.3328ZM31.5086 35.1498C31.0426 34.7739 30.6063 34.3627 30.2036 33.9198C30.8876 33.9348 31.5056 33.9858 32.0396 34.0818C32.9906 34.2528 33.4376 34.5228 33.5936 34.7088C33.6428 34.7607 33.6706 34.8293 33.6716 34.9008C33.6611 35.1124 33.5993 35.3183 33.4916 35.5008C33.4311 35.6469 33.334 35.7751 33.2096 35.8728C33.1477 35.9108 33.0747 35.9266 33.0026 35.9178C32.7326 35.9088 32.2286 35.7198 31.5086 35.1498ZM24.8336 20.9118C24.7136 21.6438 24.5096 22.4838 24.2336 23.3988C24.1319 23.0562 24.0428 22.7099 23.9666 22.3608C23.7386 21.3018 23.7056 20.4708 23.8286 19.8948C23.9426 19.3638 24.1586 19.1508 24.4166 19.0458C24.555 18.9848 24.7015 18.9444 24.8516 18.9258C24.8906 19.0158 24.9356 19.2018 24.9476 19.5198C24.9626 19.8858 24.9266 20.3508 24.8336 20.9148V20.9118Z" fill="#B4264E"/>
<path fill-rule="evenodd" clip-rule="evenodd" d="M12 0H27.879C28.6746 0.000169912 29.4375 0.316352 30 0.879L41.121 12C41.6836 12.5625 41.9998 13.3254 42 14.121V42C42 43.5913 41.3679 45.1174 40.2426 46.2426C39.1174 47.3679 37.5913 48 36 48H12C10.4087 48 8.88258 47.3679 7.75736 46.2426C6.63214 45.1174 6 43.5913 6 42V6C6 4.4087 6.63214 2.88258 7.75736 1.75736C8.88258 0.632141 10.4087 0 12 0V0ZM28.5 4.5V10.5C28.5 11.2956 28.8161 12.0587 29.3787 12.6213C29.9413 13.1839 30.7044 13.5 31.5 13.5H37.5L28.5 4.5ZM12.495 41.004C12.765 41.544 13.185 42.033 13.809 42.261C14.43 42.486 15.045 42.381 15.549 42.171C16.503 41.781 17.454 40.863 18.327 39.813C19.326 38.61 20.376 37.032 21.39 35.283C23.3476 34.7028 25.3523 34.2952 27.381 34.065C28.281 35.214 29.211 36.204 30.111 36.915C30.951 37.575 31.92 38.124 32.913 38.166C33.4539 38.1928 33.9894 38.0479 34.443 37.752C34.908 37.449 35.253 37.011 35.505 36.504C35.775 35.961 35.94 35.394 35.919 34.815C35.9 34.2442 35.6885 33.6965 35.319 33.261C34.641 32.451 33.531 32.061 32.439 31.866C31.1143 31.6608 29.7703 31.6105 28.434 31.716C27.3056 30.1208 26.3217 28.4281 25.494 26.658C26.244 24.678 26.805 22.806 27.054 21.276C27.162 20.622 27.219 19.998 27.198 19.434C27.1943 18.8742 27.064 18.3224 26.817 17.82C26.6747 17.5427 26.4724 17.3006 26.2249 17.1112C25.9774 16.9218 25.6908 16.7899 25.386 16.725C24.78 16.596 24.156 16.725 23.583 16.956C22.452 17.406 21.855 18.366 21.63 19.425C21.411 20.445 21.51 21.633 21.768 22.833C22.032 24.051 22.482 25.377 23.058 26.718C22.1367 29.0094 21.0726 31.2408 19.872 33.399C18.3259 33.8854 16.8356 34.5341 15.426 35.334C14.316 35.994 13.329 36.774 12.735 37.695C12.105 38.673 11.91 39.837 12.495 41.004V41.004Z" fill="#B4264E"/>
</svg>
