<svg width="48" height="48" viewBox="0 0 48 48" fill="none" xmlns="http://www.w3.org/2000/svg">
<path d="M27.879 0H12C10.4087 0 8.88258 0.632141 7.75736 1.75736C6.63214 2.88258 6 4.4087 6 6V42C6 43.5913 6.63214 45.1174 7.75736 46.2426C8.88258 47.3679 10.4087 48 12 48H36C37.5913 48 39.1174 47.3679 40.2426 46.2426C41.3679 45.1174 42 43.5913 42 42V14.121C41.9998 13.3254 41.6836 12.5625 41.121 12L30 0.879C29.4375 0.316352 28.6746 0.000169912 27.879 0V0ZM28.5 10.5V4.5L37.5 13.5H31.5C30.7044 13.5 29.9413 13.1839 29.3787 12.6213C28.8161 12.0587 28.5 11.2956 28.5 10.5ZM19.938 22.938C20.0775 22.7985 20.243 22.6879 20.4252 22.6124C20.6075 22.537 20.8028 22.4981 21 22.4981C21.1972 22.4981 21.3925 22.537 21.5748 22.6124C21.757 22.6879 21.9225 22.7985 22.062 22.938C22.2015 23.0775 22.3121 23.243 22.3876 23.4252C22.463 23.6075 22.5019 23.8028 22.5019 24C22.5019 24.1972 22.463 24.3925 22.3876 24.5748C22.3121 24.757 22.2015 24.9225 22.062 25.062L17.121 30L22.062 34.938C22.3437 35.2197 22.5019 35.6017 22.5019 36C22.5019 36.3983 22.3437 36.7803 22.062 37.062C21.7803 37.3437 21.3983 37.5019 21 37.5019C20.6017 37.5019 20.2197 37.3437 19.938 37.062L13.938 31.062C13.7983 30.9227 13.6875 30.7571 13.6119 30.5749C13.5362 30.3927 13.4973 30.1973 13.4973 30C13.4973 29.8027 13.5362 29.6073 13.6119 29.4251C13.6875 29.2429 13.7983 29.0773 13.938 28.938L19.938 22.938ZM28.062 22.938L34.062 28.938C34.2017 29.0773 34.3125 29.2429 34.3881 29.4251C34.4638 29.6073 34.5027 29.8027 34.5027 30C34.5027 30.1973 34.4638 30.3927 34.3881 30.5749C34.3125 30.7571 34.2017 30.9227 34.062 31.062L28.062 37.062C27.7803 37.3437 27.3983 37.5019 27 37.5019C26.6017 37.5019 26.2197 37.3437 25.938 37.062C25.6563 36.7803 25.4981 36.3983 25.4981 36C25.4981 35.6017 25.6563 35.2197 25.938 34.938L30.879 30L25.938 25.062C25.7985 24.9225 25.6879 24.757 25.6124 24.5748C25.537 24.3925 25.4981 24.1972 25.4981 24C25.4981 23.8028 25.537 23.6075 25.6124 23.4252C25.6879 23.243 25.7985 23.0775 25.938 22.938C26.0775 22.7985 26.243 22.6879 26.4252 22.6124C26.6075 22.537 26.8028 22.4981 27 22.4981C27.1972 22.4981 27.3925 22.537 27.5748 22.6124C27.757 22.6879 27.9225 22.7985 28.062 22.938Z" fill="#8B83C8"/>
</svg>
