<svg width="48" height="48" viewBox="0 0 48 48" fill="none" xmlns="http://www.w3.org/2000/svg">
<path d="M21 21C21 20.2044 21.3161 19.4413 21.8787 18.8787C22.4413 18.3161 23.2044 18 24 18C24.7956 18 25.5587 18.3161 26.1213 18.8787C26.6839 19.4413 27 20.2044 27 21V24H21V21Z" fill="#336791"/>
<path d="M27.879 0H12C10.4087 0 8.88258 0.632141 7.75736 1.75736C6.63214 2.88258 6 4.4087 6 6V42C6 43.5913 6.63214 45.1174 7.75736 46.2426C8.88258 47.3679 10.4087 48 12 48H36C37.5913 48 39.1174 47.3679 40.2426 46.2426C41.3679 45.1174 42 43.5913 42 42V14.121C41.9998 13.3254 41.6836 12.5625 41.121 12L30 0.879C29.4375 0.316352 28.6746 0.000169912 27.879 0V0ZM28.5 10.5V4.5L37.5 13.5H31.5C30.7044 13.5 29.9413 13.1839 29.3787 12.6213C28.8161 12.0587 28.5 11.2956 28.5 10.5ZM30 21V24.228C31.62 24.726 33 26.019 33 27.9V35.1C33 37.548 30.657 39 28.5 39H19.5C17.343 39 15 37.548 15 35.1V27.9C15 26.019 16.38 24.726 18 24.228V21C18 19.4087 18.6321 17.8826 19.7574 16.7574C20.8826 15.6321 22.4087 15 24 15C25.5913 15 27.1174 15.6321 28.2426 16.7574C29.3679 17.8826 30 19.4087 30 21V21Z" fill="#336791"/>
</svg>
