<svg width="48" height="48" viewBox="0 0 48 48" fill="none" xmlns="http://www.w3.org/2000/svg">
<path d="M24.564 30H21V19.5H24.564C25.2534 19.5 25.9361 19.6358 26.5731 19.8996C27.21 20.1635 27.7888 20.5502 28.2763 21.0377C28.7638 21.5252 29.1505 22.104 29.4144 22.7409C29.6782 23.3779 29.814 24.0606 29.814 24.75C29.814 25.4394 29.6782 26.1221 29.4144 26.7591C29.1505 27.396 28.7638 27.9748 28.2763 28.4623C27.7888 28.9498 27.21 29.3365 26.5731 29.6004C25.9361 29.8642 25.2534 30 24.564 30Z" fill="#B53AB3"/>
<path d="M12 0H27.879C28.6746 0.000169912 29.4375 0.316352 30 0.879L41.121 12C41.6836 12.5625 41.9998 13.3254 42 14.121V42C42 43.5913 41.3679 45.1174 40.2426 46.2426C39.1174 47.3679 37.5913 48 36 48H12C10.4087 48 8.88258 47.3679 7.75736 46.2426C6.63214 45.1174 6 43.5913 6 42V6C6 4.4087 6.63214 2.88258 7.75736 1.75736C8.88258 0.632141 10.4087 0 12 0V0ZM28.5 4.5V10.5C28.5 11.2956 28.8161 12.0587 29.3787 12.6213C29.9413 13.1839 30.7044 13.5 31.5 13.5H37.5L28.5 4.5ZM21 16.5C20.2044 16.5 19.4413 16.8161 18.8787 17.3787C18.3161 17.9413 18 18.7044 18 19.5V39C18 39.3978 18.158 39.7794 18.4393 40.0607C18.7206 40.342 19.1022 40.5 19.5 40.5C19.8978 40.5 20.2794 40.342 20.5607 40.0607C20.842 39.7794 21 39.3978 21 39V33H24.564C26.752 33 28.8505 32.1308 30.3976 30.5836C31.9448 29.0365 32.814 26.938 32.814 24.75C32.814 22.562 31.9448 20.4635 30.3976 18.9164C28.8505 17.3692 26.752 16.5 24.564 16.5H21Z" fill="#B53AB3"/>
</svg>
