<svg width="48" height="48" viewBox="0 0 48 48" fill="none" xmlns="http://www.w3.org/2000/svg">
<path d="M27.879 0H12C10.4087 0 8.88258 0.632141 7.75736 1.75736C6.63214 2.88258 6 4.4087 6 6V42C6 43.5913 6.63214 45.1174 7.75736 46.2426C8.88258 47.3679 10.4087 48 12 48H36C37.5913 48 39.1174 47.3679 40.2426 46.2426C41.3679 45.1174 42 43.5913 42 42V14.121C41.9998 13.3254 41.6836 12.5625 41.121 12L30 0.879C29.4375 0.316352 28.6746 0.000169912 27.879 0V0ZM28.5 10.5V4.5L37.5 13.5H31.5C30.7044 13.5 29.9413 13.1839 29.3787 12.6213C28.8161 12.0587 28.5 11.2956 28.5 10.5ZM13.5 27C13.1022 27 12.7206 26.842 12.4393 26.5607C12.158 26.2794 12 25.8978 12 25.5C12 25.1022 12.158 24.7206 12.4393 24.4393C12.7206 24.158 13.1022 24 13.5 24H34.5C34.8978 24 35.2794 24.158 35.5607 24.4393C35.842 24.7206 36 25.1022 36 25.5C36 25.8978 35.842 26.2794 35.5607 26.5607C35.2794 26.842 34.8978 27 34.5 27H13.5ZM12 31.5C12 31.1022 12.158 30.7206 12.4393 30.4393C12.7206 30.158 13.1022 30 13.5 30H34.5C34.8978 30 35.2794 30.158 35.5607 30.4393C35.842 30.7206 36 31.1022 36 31.5C36 31.8978 35.842 32.2794 35.5607 32.5607C35.2794 32.842 34.8978 33 34.5 33H13.5C13.1022 33 12.7206 32.842 12.4393 32.5607C12.158 32.2794 12 31.8978 12 31.5ZM13.5 39C13.1022 39 12.7206 38.842 12.4393 38.5607C12.158 38.2794 12 37.8978 12 37.5C12 37.1022 12.158 36.7206 12.4393 36.4393C12.7206 36.158 13.1022 36 13.5 36H25.5C25.8978 36 26.2794 36.158 26.5607 36.4393C26.842 36.7206 27 37.1022 27 37.5C27 37.8978 26.842 38.2794 26.5607 38.5607C26.2794 38.842 25.8978 39 25.5 39H13.5Z" fill="#48AEEB"/>
</svg>
