<svg width="48" height="48" viewBox="0 0 48 48" fill="none" xmlns="http://www.w3.org/2000/svg">
<path d="M27.879 0H12C10.4087 0 8.88258 0.632141 7.75736 1.75736C6.63214 2.88258 6 4.4087 6 6V42C6 43.5913 6.63214 45.1174 7.75736 46.2426C8.88258 47.3679 10.4087 48 12 48H36C37.5913 48 39.1174 47.3679 40.2426 46.2426C41.3679 45.1174 42 43.5913 42 42V14.121C41.9998 13.3254 41.6836 12.5625 41.121 12L30 0.879C29.4375 0.316352 28.6746 0.000169912 27.879 0V0ZM28.5 10.5V4.5L37.5 13.5H31.5C30.7044 13.5 29.9413 13.1839 29.3787 12.6213C28.8161 12.0587 28.5 11.2956 28.5 10.5ZM20.562 21.438L24 24.879L27.438 21.438C27.7197 21.1563 28.1017 20.9981 28.5 20.9981C28.8983 20.9981 29.2803 21.1563 29.562 21.438C29.8437 21.7197 30.0019 22.1017 30.0019 22.5C30.0019 22.8983 29.8437 23.2803 29.562 23.562L26.121 27L29.562 30.438C29.8437 30.7197 30.0019 31.1017 30.0019 31.5C30.0019 31.8983 29.8437 32.2803 29.562 32.562C29.2803 32.8437 28.8983 33.0019 28.5 33.0019C28.1017 33.0019 27.7197 32.8437 27.438 32.562L24 29.121L20.562 32.562C20.2803 32.8437 19.8983 33.0019 19.5 33.0019C19.1017 33.0019 18.7197 32.8437 18.438 32.562C18.1563 32.2803 17.9981 31.8983 17.9981 31.5C17.9981 31.1017 18.1563 30.7197 18.438 30.438L21.879 27L18.438 23.562C18.2985 23.4225 18.1879 23.257 18.1124 23.0748C18.037 22.8925 17.9981 22.6972 17.9981 22.5C17.9981 22.3028 18.037 22.1075 18.1124 21.9252C18.1879 21.743 18.2985 21.5775 18.438 21.438C18.5775 21.2985 18.743 21.1879 18.9252 21.1124C19.1075 21.037 19.3028 20.9981 19.5 20.9981C19.6972 20.9981 19.8925 21.037 20.0748 21.1124C20.257 21.1879 20.4225 21.2985 20.562 21.438V21.438Z" fill="#C4C4C4"/>
</svg>
