<svg width="48" height="48" viewBox="0 0 48 48" fill="none" xmlns="http://www.w3.org/2000/svg">
<path d="M27.879 0H12C10.4087 0 8.88258 0.632141 7.75736 1.75736C6.63214 2.88258 6 4.4087 6 6V42C6 43.5913 6.63214 45.1174 7.75736 46.2426C8.88258 47.3679 10.4087 48 12 48H36C37.5913 48 39.1174 47.3679 40.2426 46.2426C41.3679 45.1174 42 43.5913 42 42V14.121C41.9998 13.3254 41.6836 12.5625 41.121 12L30 0.879C29.4375 0.316352 28.6746 0.000169912 27.879 0V0ZM28.5 10.5V4.5L37.5 13.5H31.5C30.7044 13.5 29.9413 13.1839 29.3787 12.6213C28.8161 12.0587 28.5 11.2956 28.5 10.5ZM18 20.649C17.9999 20.3836 18.0703 20.1229 18.2039 19.8936C18.3375 19.6643 18.5295 19.4745 18.7604 19.3437C18.9913 19.2128 19.2528 19.1456 19.5182 19.1488C19.7836 19.152 20.0433 19.2256 20.271 19.362L30.855 25.713C31.0775 25.8462 31.2616 26.0347 31.3895 26.2603C31.5173 26.4859 31.5845 26.7407 31.5845 27C31.5845 27.2593 31.5173 27.5141 31.3895 27.7397C31.2616 27.9653 31.0775 28.1538 30.855 28.287L20.271 34.638C20.0431 34.7745 19.7831 34.8481 19.5174 34.8512C19.2518 34.8543 18.9901 34.7868 18.7591 34.6556C18.5281 34.5244 18.3361 34.3342 18.2028 34.1044C18.0694 33.8747 17.9994 33.6137 18 33.348V20.652V20.649Z" fill="#4C56BD"/>
</svg>
