<svg width="48" height="48" viewBox="0 0 48 48" fill="none" xmlns="http://www.w3.org/2000/svg">
<path d="M27.879 0H12C10.4087 0 8.88258 0.632141 7.75736 1.75736C6.63214 2.88258 6 4.4087 6 6V42C6 43.5913 6.63214 45.1174 7.75736 46.2426C8.88258 47.3679 10.4087 48 12 48H36C37.5913 48 39.1174 47.3679 40.2426 46.2426C41.3679 45.1174 42 43.5913 42 42V14.121C41.9998 13.3254 41.6836 12.5625 41.121 12L30 0.879C29.4375 0.316352 28.6746 0.000169912 27.879 0V0ZM28.5 10.5V4.5L37.5 13.5H31.5C30.7044 13.5 29.9413 13.1839 29.3787 12.6213C28.8161 12.0587 28.5 11.2956 28.5 10.5ZM16.455 20.637L19.563 33.069L22.554 22.104C22.6413 21.7875 22.83 21.5084 23.0912 21.3095C23.3524 21.1106 23.6717 21.0029 24 21.0029C24.3283 21.0029 24.6476 21.1106 24.9088 21.3095C25.17 21.5084 25.3587 21.7875 25.446 22.104L28.437 33.069L31.545 20.637C31.6486 20.2591 31.896 19.9368 32.2342 19.739C32.5724 19.5411 32.9745 19.4835 33.3547 19.5783C33.7348 19.6731 34.0628 19.913 34.2684 20.2465C34.4741 20.58 34.541 20.9807 34.455 21.363L29.955 39.363C29.874 39.6843 29.6888 39.9697 29.4285 40.1746C29.1682 40.3796 28.8474 40.4926 28.5161 40.4961C28.1848 40.4995 27.8616 40.3931 27.5971 40.1936C27.3326 39.994 27.1417 39.7125 27.054 39.393L24 28.206L20.946 39.396C20.8583 39.7155 20.6674 39.997 20.4029 40.1966C20.1384 40.3961 19.8152 40.5025 19.4839 40.4991C19.1526 40.4956 18.8318 40.3826 18.5715 40.1776C18.3112 39.9727 18.126 39.6873 18.045 39.366L13.545 21.366C13.4921 21.1732 13.4783 20.9718 13.5044 20.7736C13.5305 20.5754 13.5959 20.3844 13.6969 20.2119C13.7978 20.0393 13.9322 19.8887 14.0922 19.7688C14.2522 19.649 14.4345 19.5623 14.6285 19.5139C14.8225 19.4655 15.0241 19.4564 15.2217 19.4871C15.4192 19.5177 15.6086 19.5876 15.7788 19.6925C15.949 19.7974 16.0964 19.9352 16.2126 20.098C16.3287 20.2607 16.4111 20.445 16.455 20.64V20.637Z" fill="#2F61AD"/>
</svg>
