<svg width="48" height="48" viewBox="0 0 48 48" fill="none" xmlns="http://www.w3.org/2000/svg">
<g clip-path="url(#clip0_123_276)">
<path d="M12 0H27.879C28.6746 0.000169912 29.4375 0.316352 30 0.879L41.121 12C41.6836 12.5625 41.9998 13.3254 42 14.121V27H6V6C6 4.4087 6.63214 2.88258 7.75736 1.75736C8.88258 0.632141 10.4087 0 12 0V0ZM28.5 4.5V10.5C28.5 11.2956 28.8161 12.0587 29.3787 12.6213C29.9413 13.1839 30.7044 13.5 31.5 13.5H37.5L28.5 4.5ZM6 36H42V42C42 43.5913 41.3679 45.1174 40.2426 46.2426C39.1174 47.3679 37.5913 48 36 48H12C10.4087 48 8.88258 47.3679 7.75736 46.2426C6.63214 45.1174 6 43.5913 6 42V36ZM1.5 30C1.10218 30 0.720644 30.158 0.43934 30.4393C0.158035 30.7206 0 31.1022 0 31.5C0 31.8978 0.158035 32.2794 0.43934 32.5607C0.720644 32.842 1.10218 33 1.5 33H46.5C46.8978 33 47.2794 32.842 47.5607 32.5607C47.842 32.2794 48 31.8978 48 31.5C48 31.1022 47.842 30.7206 47.5607 30.4393C47.2794 30.158 46.8978 30 46.5 30H1.5Z" fill="#2C8EBB"/>
</g>
<defs>
<clipPath id="clip0_123_276">
<rect width="48" height="48" fill="white"/>
</clipPath>
</defs>
</svg>
