<svg width="48" height="48" viewBox="0 0 48 48" fill="none" xmlns="http://www.w3.org/2000/svg">
<path d="M40 40C41.0609 40 42.0783 39.5786 42.8284 38.8284C43.5786 38.0783 44 37.0609 44 36V16C44 14.9391 43.5786 13.9217 42.8284 13.1716C42.0783 12.4214 41.0609 12 40 12H24.2C23.531 12.0066 22.8711 11.8452 22.2806 11.5308C21.6901 11.2163 21.1879 10.7588 20.82 10.2L19.2 7.8C18.8358 7.24694 18.3399 6.79296 17.757 6.47879C17.174 6.16463 16.5222 6.00011 15.86 6H8C6.93913 6 5.92172 6.42143 5.17157 7.17157C4.42143 7.92172 4 8.93913 4 10V36C4 37.0609 4.42143 38.0783 5.17157 38.8284C5.92172 39.5786 6.93913 40 8 40H40Z" stroke="#FA9200" stroke-width="4" stroke-linecap="round" stroke-linejoin="round"/>
</svg>
