<svg width="48" height="48" viewBox="0 0 48 48" fill="none" xmlns="http://www.w3.org/2000/svg">
<path d="M8 40C6.9 40 5.95867 39.6087 5.176 38.826C4.39333 38.0433 4.00133 37.1013 4 36V12C4 10.9 4.392 9.95867 5.176 9.176C5.96 8.39333 6.90133 8.00133 8 8H18.35C18.8833 8 19.392 8.1 19.876 8.3C20.36 8.5 20.7847 8.78333 21.15 9.15L24 12H42C42.5667 12 43.042 12.192 43.426 12.576C43.81 12.96 44.0013 13.4347 44 14C43.9987 14.5653 43.8067 15.0407 43.424 15.426C43.0413 15.8113 42.5667 16.0027 42 16H22.35L18.35 12H8V36L11.95 22.85C12.2167 21.9833 12.7087 21.292 13.426 20.776C14.1433 20.26 14.9347 20.0013 15.8 20H41.6C42.9667 20 44.042 20.542 44.826 21.626C45.61 22.71 45.818 23.8847 45.45 25.15L41.85 37.15C41.5833 38.0167 41.092 38.7087 40.376 39.226C39.66 39.7433 38.868 40.0013 38 40H8ZM12.2 36H38L41.6 24H15.8L12.2 36Z" fill="#FA9200"/>
</svg>
